<svg xmlns="http://www.w3.org/2000/svg" viewBox="0 0 24 24" width="1em" height="1em">
  <rect x="0" y="0" width="24" height="24" rx="6" ry="6" fill="#14181a" />
  <g transform="translate(2.16,2.16) scale(0.82)">
    <path d="M7.5 12H16.5" stroke="#e3e6e8" stroke-width="2.25" stroke-linecap="round" />
    <path fill-rule="evenodd" clip-rule="evenodd"
      d="M3.25499 3.25H3.66807L11.3418 17.7214L12.0044 18.9709L12.667 17.7214L20.3408 3.25H20.754H22.0006L21.4166 4.35136L12.7208 20.75H11.2881L2.59238 4.35136L2.00836 3.25H3.25499Z"
      fill="#ffffff" stroke="#ffffff" stroke-width="0.6" stroke-linejoin="round" stroke-linecap="round" />
    <path fill-rule="evenodd" clip-rule="evenodd"
      d="M11.2882 3.25L2.59238 19.6487L2.00836 20.7501H3.25499H3.66804L11.3418 6.27864L12.0044 5.02909L12.667 6.27864L20.3408 20.7501H20.754H22.0006L21.4166 19.6487L12.7208 3.25H11.2882Z"
      fill="#ffffff" stroke="#ffffff" stroke-width="0.6" stroke-linejoin="round" stroke-linecap="round" />
  </g>
</svg>
